<?xml version="1.0" encoding="utf-8"?>
<!DOCTYPE svg PUBLIC "-//W3C//DTD SVG 20010904//EN" "http://www.w3.org/TR/2001/REC-SVG-20010904/DTD/svg10.dtd">
<svg version="1.0" xmlns="http://www.w3.org/2000/svg" width="303pt" height="303pt" viewBox="0 0 303 303" style="" preserveAspectRatio="xMidYMid meet">
<g fill="#FEFEFEFF" stroke="#FEFEFEFF">
<path d="M 138.000 13.108 C 127.463 14.301 112.161 17.654 101.000 21.216 C 65.666 32.493 40.414 49.735 23.191 74.344 C 13.962 87.531 11.560 107.000 19.162 107.000 C 21.882 107.000 28.740 110.667 33.923 114.894 C 45.135 124.035 70.996 159.680 71.001 166.000 C 71.002 167.375 71.871 170.075 72.932 172.000 C 75.916 177.414 76.690 179.248 77.431 182.653 C 78.078 185.631 77.904 185.874 74.308 187.027 C 60.429 191.475 40.579 205.658 34.522 215.456 C 31.983 219.562 31.444 221.576 31.149 228.058 C 30.712 237.683 32.279 241.404 39.973 249.000 C 49.541 258.446 66.231 267.000 75.093 267.000 C 77.359 267.000 79.957 268.815 86.754 275.143 C 97.363 285.021 108.490 291.000 116.263 291.000 C 123.610 291.000 125.000 289.876 125.000 283.933 C 125.000 280.192 125.419 278.777 126.668 278.297 C 129.235 277.312 138.464 279.596 146.058 283.096 C 154.787 287.120 161.557 286.920 168.198 282.444 C 174.795 277.998 196.839 255.523 203.940 246.004 C 209.598 238.419 211.142 237.046 218.329 233.206 C 227.742 228.177 237.651 221.295 244.022 215.363 C 246.509 213.047 249.768 210.845 251.263 210.470 C 258.497 208.654 271.010 189.102 275.052 173.295 C 277.624 163.240 277.663 149.308 275.142 141.207 L 273.283 135.235 276.675 133.618 C 278.541 132.728 282.213 132.000 284.834 132.000 C 290.410 132.000 292.000 130.770 292.000 126.455 C 292.000 120.052 285.700 118.054 271.478 119.946 L 262.725 121.111 259.896 118.400 L 257.066 115.689 260.019 112.326 C 263.424 108.448 264.372 105.487 264.447 98.500 L 264.500 93.500 260.475 93.204 C 256.709 92.926 256.245 93.199 253.243 97.458 C 249.857 102.262 245.530 104.743 236.500 107.062 C 229.618 108.829 212.816 109.929 211.243 108.714 C 209.752 107.563 201.887 108.470 193.748 110.731 C 190.584 111.610 187.790 112.124 187.539 111.873 C 186.491 110.824 183.885 98.847 182.807 90.122 C 181.351 78.343 182.871 58.812 186.589 41.500 C 188.007 34.900 189.409 26.896 189.706 23.714 C 190.373 16.559 188.911 14.575 181.852 13.062 C 176.129 11.834 149.001 11.863 138.000 13.108 M 182.585 18.146 C 186.142 19.871 186.144 20.409 182.677 37.000 C 176.796 65.144 176.380 91.740 181.544 109.504 C 184.239 118.775 184.340 118.822 194.629 115.682 C 199.508 114.193 204.850 113.015 206.500 113.063 L 209.500 113.152 206.000 114.577 L 202.500 116.003 206.000 115.538 C 207.925 115.283 214.450 114.561 220.500 113.935 C 233.489 112.590 247.200 109.570 250.684 107.287 C 252.050 106.392 254.705 103.647 256.584 101.186 C 259.840 96.922 260.000 96.838 260.000 99.388 C 260.000 105.494 255.277 112.814 249.901 115.041 C 246.255 116.551 246.213 117.668 249.775 118.451 C 251.301 118.786 254.866 120.813 257.697 122.956 L 262.844 126.851 267.581 125.426 C 274.029 123.485 285.364 123.528 287.000 125.500 C 288.076 126.797 287.617 127.000 283.612 127.000 C 279.238 127.000 272.747 129.358 268.731 132.405 C 267.050 133.681 267.071 133.988 269.146 138.624 C 272.242 145.541 272.928 162.597 270.483 171.874 C 267.958 181.457 261.246 194.477 255.650 200.650 C 250.286 206.566 247.581 207.827 251.145 202.750 C 252.400 200.963 249.920 202.987 245.634 207.249 C 237.446 215.391 222.255 226.163 212.959 230.418 C 208.297 232.553 206.470 234.275 200.979 241.707 C 192.750 252.846 175.334 270.943 167.373 276.626 C 159.743 282.073 156.016 282.306 146.650 277.923 C 139.122 274.401 127.687 272.408 123.699 273.924 C 121.373 274.809 121.071 275.515 120.801 280.706 L 120.500 286.500 116.710 286.382 C 108.364 286.123 87.591 272.316 84.900 265.238 C 84.407 263.941 83.665 263.088 83.252 263.342 C 82.838 263.597 78.505 262.956 73.622 261.917 C 54.028 257.750 35.018 241.786 35.019 229.500 C 35.020 216.361 53.939 199.088 76.500 191.624 C 84.250 189.061 84.132 189.244 82.385 182.465 C 81.539 179.184 79.727 174.569 78.358 172.210 C 76.989 169.850 76.043 167.150 76.256 166.210 C 77.377 161.268 57.574 132.302 42.712 117.144 C 34.048 108.306 28.442 104.273 23.317 103.190 C 19.512 102.386 19.500 102.369 19.534 97.442 C 19.599 87.830 30.012 70.685 43.200 58.475 C 67.402 36.068 107.585 20.259 149.500 16.654 C 159.032 15.834 179.743 16.768 182.585 18.146 M 205.000 119.544 C 191.644 123.805 170.228 139.711 158.909 153.776 C 151.228 163.321 148.281 168.485 146.443 175.626 C 145.611 178.857 142.498 186.450 139.524 192.500 C 136.551 198.550 132.764 206.551 131.109 210.279 C 126.536 220.579 118.433 233.418 112.378 239.958 C 101.576 251.626 89.589 256.865 73.595 256.909 C 64.776 256.933 63.255 256.653 58.106 254.053 C 50.595 250.262 42.434 243.740 40.485 239.971 C 38.363 235.868 38.385 227.099 40.528 222.583 C 42.980 217.415 49.161 212.406 58.931 207.666 C 66.568 203.962 68.242 203.538 76.685 203.169 C 87.029 202.716 89.000 203.482 89.000 207.951 C 89.000 212.170 94.617 219.626 101.492 224.532 C 108.109 229.254 110.946 229.975 113.028 227.467 C 113.728 226.623 114.795 226.101 115.400 226.306 C 116.005 226.511 117.559 225.289 118.854 223.590 C 121.776 219.755 130.137 202.912 129.728 201.684 C 129.563 201.188 127.700 203.419 125.588 206.641 C 123.476 209.864 120.847 213.490 119.746 214.701 L 117.744 216.902 115.219 213.201 C 113.830 211.165 112.298 207.700 111.815 205.500 C 111.331 203.300 109.037 196.260 106.717 189.855 L 102.500 178.209 98.163 177.718 C 92.206 177.042 90.256 175.005 95.550 174.987 C 100.972 174.968 114.620 170.059 120.759 165.918 C 123.547 164.038 132.014 157.100 139.574 150.500 C 147.134 143.900 154.685 137.488 156.354 136.250 C 159.746 133.735 161.865 133.253 160.081 135.403 C 159.187 136.479 159.214 136.905 160.197 137.232 C 162.015 137.838 160.501 140.830 151.525 154.365 C 145.030 164.160 138.964 175.514 139.017 177.779 C 139.026 178.175 141.069 174.708 143.557 170.073 C 150.915 156.369 156.414 148.838 165.282 140.325 C 175.909 130.122 183.893 125.415 202.000 118.679 C 202.825 118.372 204.400 118.262 205.500 118.433 C 207.263 118.709 207.204 118.840 205.000 119.544 "/></g>
<g fill="#010000FF" stroke="#010000FF">
<path d="M 175.745 18.221 C 175.419 19.071 170.993 20.498 164.387 21.884 C 145.396 25.869 127.345 35.182 109.731 50.082 C 100.448 57.935 100.679 58.380 110.360 51.291 C 113.583 48.931 116.733 47.000 117.361 47.000 C 118.017 47.000 120.707 56.031 123.690 68.250 C 129.454 91.857 135.677 111.525 142.622 128.080 L 147.229 139.062 144.410 143.130 C 140.674 148.522 129.839 158.374 125.252 160.550 L 121.589 162.289 118.295 158.479 C 114.856 154.500 105.960 137.677 102.014 127.690 C 100.653 124.244 99.353 122.247 98.819 122.781 C 98.284 123.316 99.742 127.612 102.401 133.341 C 104.867 138.653 106.501 143.000 106.032 143.000 C 105.564 143.000 103.386 139.729 101.191 135.731 C 98.997 131.733 95.374 126.250 93.140 123.546 C 90.906 120.843 88.792 117.332 88.444 115.744 C 88.095 114.156 86.476 109.915 84.846 106.321 C 81.318 98.539 81.795 96.895 85.710 103.342 C 87.286 105.938 89.261 107.951 90.250 107.968 C 91.213 107.986 92.000 107.720 92.000 107.379 C 92.000 105.683 80.572 85.050 79.379 84.592 C 78.621 84.301 78.000 83.077 78.000 81.873 C 78.000 80.023 77.031 80.608 71.750 85.649 C 60.817 96.086 49.546 101.000 36.541 101.000 C 28.338 101.000 25.701 99.654 24.039 94.619 C 22.563 90.144 24.109 85.739 30.972 74.879 C 39.175 61.897 55.239 49.538 79.414 37.610 C 91.289 31.751 116.063 22.875 125.997 20.921 C 129.332 20.265 131.851 19.517 131.594 19.260 C 129.268 16.935 78.000 33.093 78.000 36.152 C 78.000 36.683 77.550 36.840 77.000 36.500 C 76.450 36.160 76.000 36.385 76.000 37.000 C 76.000 37.615 75.586 37.862 75.081 37.550 C 74.575 37.237 73.552 37.548 72.807 38.241 C 72.062 38.933 70.788 39.644 69.976 39.820 C 67.197 40.421 54.504 48.830 47.526 54.693 C 36.083 64.307 22.090 82.743 21.628 88.814 C 21.558 89.741 21.071 90.808 20.546 91.185 C 20.022 91.562 19.572 94.262 19.546 97.185 C 19.501 102.337 19.584 102.499 22.250 102.461 C 23.763 102.439 25.000 102.667 25.000 102.966 C 25.000 103.266 26.274 104.075 27.830 104.764 C 29.387 105.453 32.627 107.701 35.031 109.759 C 37.435 111.816 39.537 113.388 39.701 113.250 C 39.865 113.113 39.819 113.000 39.598 113.000 C 39.377 113.000 41.427 115.363 44.153 118.250 C 50.455 124.924 58.987 136.001 66.680 147.500 C 74.470 159.143 76.394 162.915 76.171 166.109 C 76.072 167.543 76.872 169.839 77.950 171.209 C 79.377 173.024 84.000 186.356 84.000 188.658 C 84.000 188.767 81.413 189.798 78.250 190.950 C 68.961 194.332 65.000 196.236 65.000 197.319 C 65.000 197.877 64.718 198.051 64.373 197.707 C 63.485 196.818 58.000 199.818 58.000 201.192 C 58.000 201.820 57.718 202.051 57.373 201.706 C 56.384 200.717 48.984 206.251 43.427 212.134 C 31.081 225.207 32.719 237.632 48.381 249.727 C 52.132 252.624 55.559 254.773 55.996 254.503 C 56.433 254.232 57.059 254.712 57.388 255.569 C 57.717 256.426 58.439 256.847 58.993 256.504 C 59.547 256.162 60.000 256.385 60.000 257.000 C 60.000 257.615 60.450 257.840 61.000 257.500 C 61.550 257.160 62.000 257.346 62.000 257.913 C 62.000 259.332 76.970 263.318 82.887 263.474 C 83.651 263.494 84.614 264.427 85.028 265.546 C 87.523 272.291 108.565 286.130 116.710 286.382 L 120.500 286.500 120.800 280.759 C 121.179 273.486 122.461 272.659 131.738 273.703 C 140.510 274.691 141.089 274.634 137.533 273.135 C 135.900 272.447 131.766 271.623 128.344 271.303 C 122.348 270.743 122.009 270.837 118.936 273.910 L 115.748 277.098 116.491 274.299 C 116.899 272.760 117.439 268.573 117.689 264.996 C 118.092 259.248 117.848 258.055 115.587 254.723 L 113.029 250.953 120.484 235.499 C 129.287 217.254 136.302 205.614 136.833 208.373 C 137.029 209.388 135.824 212.981 134.156 216.359 C 130.919 222.913 129.095 231.000 130.853 231.000 C 131.419 231.000 132.160 230.550 132.500 230.000 C 133.507 228.371 135.820 228.859 136.446 230.831 C 136.791 231.916 135.596 235.410 133.514 239.404 C 130.689 244.823 130.003 247.259 130.014 251.823 C 130.021 254.945 130.305 258.535 130.644 259.801 C 131.252 262.073 131.283 262.064 133.082 259.105 C 135.450 255.211 139.242 252.782 143.477 252.446 C 145.342 252.298 147.795 251.883 148.926 251.523 C 150.506 251.022 151.258 251.472 152.163 253.459 C 153.743 256.927 157.280 257.632 163.417 255.704 C 166.213 254.825 170.000 253.861 171.834 253.561 C 176.865 252.739 180.584 249.552 184.515 242.695 C 186.468 239.288 188.811 235.443 189.721 234.150 C 191.056 232.255 190.156 232.589 185.069 235.877 C 178.477 240.138 173.614 241.647 170.087 240.528 C 168.939 240.163 168.000 239.178 168.000 238.337 C 168.000 236.092 171.746 231.215 174.026 230.492 C 176.074 229.842 176.775 228.000 174.974 228.000 C 173.090 228.000 165.000 236.918 165.000 238.995 C 165.000 242.141 168.880 243.387 175.672 242.423 C 178.877 241.968 181.903 241.574 182.396 241.548 C 182.888 241.521 182.047 242.979 180.527 244.786 C 177.535 248.342 172.000 251.734 172.000 250.011 C 172.000 249.440 170.170 250.183 167.934 251.663 C 165.354 253.370 162.246 254.445 159.434 254.604 C 155.479 254.827 154.936 254.593 154.392 252.427 C 153.833 250.199 153.297 250.000 147.859 250.000 C 140.918 250.000 135.646 251.925 133.960 255.075 C 132.841 257.165 132.689 257.196 131.756 255.528 C 129.970 252.337 131.683 244.315 135.456 238.202 C 139.066 232.354 139.891 228.291 137.878 226.278 C 137.261 225.661 136.136 225.394 135.378 225.685 C 133.001 226.597 133.815 222.556 136.852 218.363 C 140.241 213.685 141.925 208.966 142.257 203.219 C 142.391 200.904 142.838 199.008 143.250 199.005 C 143.663 199.002 144.004 198.438 144.009 197.750 C 144.015 197.063 145.477 194.026 147.259 191.001 C 149.042 187.977 150.205 186.627 149.843 188.001 C 147.296 197.693 152.402 207.594 158.886 205.536 C 166.545 203.105 169.883 195.441 170.608 178.626 C 170.920 171.384 171.615 166.708 172.689 164.626 C 174.620 160.882 181.061 152.292 181.406 153.000 C 181.541 153.275 184.317 151.854 187.575 149.841 C 193.490 146.189 201.621 140.106 200.888 139.882 C 200.674 139.816 200.812 139.808 201.193 139.863 C 201.574 139.917 203.261 138.293 204.943 136.253 C 208.368 132.098 208.770 132.367 206.384 137.216 C 205.495 139.022 202.907 141.850 200.634 143.501 C 192.917 149.102 188.062 163.394 191.278 171.039 C 192.717 174.459 192.728 174.421 192.244 167.925 C 191.781 161.714 191.921 161.159 194.764 157.925 C 196.419 156.041 201.311 152.624 205.636 150.331 C 213.213 146.315 229.119 141.000 233.563 141.000 C 235.691 141.000 235.699 141.075 234.376 148.682 C 232.419 159.935 230.266 165.599 226.853 168.470 C 222.983 171.726 217.440 171.963 216.472 168.913 C 215.309 165.246 217.008 159.997 220.673 155.940 C 223.650 152.645 223.921 152.000 222.328 152.000 C 218.265 152.000 211.501 156.498 208.250 161.363 C 206.463 164.038 205.037 166.963 205.081 167.863 C 205.130 168.852 205.648 168.404 206.390 166.728 C 208.110 162.845 217.329 153.631 217.606 155.519 C 217.725 156.333 217.390 157.000 216.860 157.000 C 215.491 157.000 213.000 163.386 213.000 166.896 C 213.000 173.408 219.582 174.935 227.054 170.157 C 234.803 165.203 246.101 152.351 250.180 143.852 C 252.474 139.073 255.182 135.135 257.400 133.352 C 261.241 130.265 272.936 125.143 269.733 127.951 C 259.532 136.892 254.508 141.989 252.520 145.417 C 249.690 150.294 245.750 160.316 243.545 168.246 C 241.660 175.023 237.188 180.555 231.509 183.135 C 225.818 185.720 222.366 185.499 219.458 182.361 C 217.074 179.788 216.867 179.750 211.256 180.875 C 204.065 182.316 196.992 186.569 194.911 190.703 C 194.037 192.439 192.544 195.048 191.592 196.500 C 190.641 197.952 189.827 200.365 189.785 201.862 C 189.691 205.153 191.733 209.283 193.050 208.469 C 193.573 208.146 194.000 208.359 194.000 208.941 C 194.000 209.523 194.900 210.000 196.000 210.000 C 201.705 210.000 192.991 219.961 183.239 224.588 C 177.049 227.525 175.530 229.012 178.750 228.985 C 181.197 228.965 188.637 226.284 191.559 224.369 C 194.205 222.636 201.884 210.918 204.537 204.568 L 206.179 200.636 202.555 203.818 C 198.374 207.488 195.812 207.812 193.023 205.023 C 190.841 202.841 191.163 200.764 194.210 197.371 C 195.262 196.199 196.910 193.771 197.874 191.975 C 200.273 187.501 206.848 182.964 211.919 182.284 C 215.770 181.767 216.363 182.003 219.020 185.110 C 220.614 186.975 221.937 189.005 221.959 189.622 C 222.110 193.779 205.763 225.440 195.690 240.500 C 190.081 248.886 178.984 262.699 173.821 267.722 C 167.740 273.638 158.579 277.252 151.701 276.448 C 148.840 276.114 145.263 275.450 143.750 274.972 C 138.740 273.390 140.953 275.455 147.277 278.262 C 155.924 282.101 159.462 281.875 166.732 277.020 C 174.272 271.985 192.514 253.179 200.979 241.712 C 206.472 234.272 208.296 232.553 212.959 230.418 C 222.287 226.148 237.462 215.376 245.600 207.249 C 249.868 202.987 252.542 200.752 251.544 202.281 C 248.386 207.120 250.553 206.271 255.618 200.685 C 261.244 194.480 267.953 181.476 270.485 171.867 C 272.906 162.680 272.204 145.604 269.118 138.624 C 267.069 133.987 267.050 133.682 268.731 132.405 C 272.747 129.358 279.238 127.000 283.612 127.000 C 287.617 127.000 288.076 126.797 287.000 125.500 C 285.364 123.528 274.029 123.485 267.581 125.426 L 262.844 126.851 257.697 122.956 C 254.866 120.813 251.301 118.786 249.775 118.451 C 246.104 117.644 246.275 116.716 250.464 114.719 C 254.865 112.620 259.013 106.391 259.718 100.822 L 260.265 96.500 256.716 101.080 C 254.765 103.599 252.050 106.392 250.684 107.287 C 247.200 109.570 233.489 112.590 220.500 113.935 C 214.450 114.561 207.925 115.283 206.000 115.538 L 202.500 116.003 206.000 114.577 C 209.467 113.166 209.473 113.151 206.693 113.076 C 203.268 112.983 195.000 114.983 195.000 115.904 C 195.000 116.271 194.213 116.613 193.250 116.664 C 192.288 116.715 190.074 117.086 188.332 117.487 C 185.517 118.136 185.001 117.899 183.709 115.359 C 179.745 107.571 178.543 99.013 178.533 78.500 C 178.523 57.906 179.057 53.080 183.661 32.116 C 186.468 19.331 186.294 18.655 179.890 17.488 C 177.260 17.009 176.134 17.208 175.745 18.221 M 136.009 53.536 C 140.267 75.435 148.401 108.302 152.012 118.195 C 153.655 122.698 155.000 127.108 155.000 127.995 C 155.000 128.882 153.435 131.125 151.522 132.978 L 148.044 136.349 145.647 130.925 C 140.810 119.984 132.726 97.176 129.446 85.221 C 125.466 70.714 124.354 64.615 123.477 52.484 C 122.899 44.493 123.034 43.286 124.662 41.859 C 126.503 40.248 132.322 37.002 132.703 37.374 C 132.814 37.483 134.302 44.756 136.009 53.536 M 148.399 36.750 C 148.706 38.263 149.671 45.125 150.544 52.000 C 152.081 64.113 155.947 84.864 157.996 91.993 C 158.548 93.915 159.000 97.665 159.000 100.327 C 159.000 102.989 159.915 108.749 161.032 113.127 C 163.001 120.839 162.969 123.000 160.885 123.000 C 159.600 123.000 156.480 115.910 154.943 109.500 C 154.284 106.750 153.166 104.029 152.459 103.453 C 151.166 102.400 146.496 86.519 145.563 80.000 C 145.287 78.075 144.398 73.321 143.588 69.436 C 141.633 60.062 138.766 37.901 139.424 37.243 C 140.068 36.599 141.999 41.519 142.003 43.815 C 142.013 50.364 150.726 97.608 151.737 96.596 C 151.960 96.373 151.160 89.510 149.958 81.345 C 148.756 73.180 147.639 63.800 147.474 60.500 C 147.310 57.200 146.846 49.888 146.442 44.250 C 145.938 37.202 146.042 34.000 146.775 34.000 C 147.361 34.000 148.092 35.238 148.399 36.750 M 104.696 259.956 C 106.453 261.028 108.618 263.014 109.506 264.369 C 110.863 266.439 110.913 267.167 109.820 268.917 C 109.104 270.063 107.815 271.000 106.955 271.000 C 104.365 271.000 96.686 265.600 93.699 261.678 L 90.898 258.000 96.199 258.004 C 99.688 258.006 102.592 258.674 104.696 259.956 M 104.529 242.980 C 98.684 247.002 90.841 250.468 82.979 252.505 C 72.321 255.267 73.088 253.655 84.521 249.264 C 90.560 246.946 98.875 243.079 103.000 240.671 C 111.439 235.746 112.567 237.450 104.529 242.980 "/></g>
<g fill="#FE0000FF" stroke="#FE0000FF">
<path d="M 152.500 17.683 C 118.564 20.622 80.902 34.320 53.000 53.872 C 40.157 62.871 31.380 73.106 25.921 85.445 C 20.906 96.782 27.470 102.396 42.873 99.944 C 53.591 98.239 62.932 93.086 73.333 83.142 C 80.325 76.457 81.869 75.333 80.150 78.177 C 77.965 81.792 77.959 81.885 79.835 83.677 C 81.549 85.315 93.000 106.779 93.000 108.355 C 93.000 108.710 91.972 109.000 90.716 109.000 C 89.258 109.000 87.719 107.887 86.466 105.927 C 84.561 102.949 84.537 102.941 85.703 105.677 C 86.364 107.230 87.614 110.796 88.481 113.603 C 89.347 116.410 91.532 120.460 93.337 122.603 C 95.141 124.746 97.715 128.222 99.058 130.326 L 101.500 134.152 99.341 128.685 C 97.786 124.747 97.487 122.913 98.270 122.130 C 99.053 121.347 101.799 126.003 108.085 138.772 C 112.885 148.522 117.996 157.606 119.442 158.958 L 122.072 161.416 125.786 159.458 C 130.306 157.075 144.484 143.201 145.423 140.242 C 145.881 138.800 144.657 134.729 141.649 127.687 C 133.930 109.616 122.008 69.698 119.411 53.228 C 118.303 46.200 118.449 46.157 102.201 58.290 C 85.341 70.880 91.767 63.264 111.000 47.863 C 128.360 33.961 145.833 25.026 162.500 21.527 C 173.505 19.217 174.255 18.765 168.500 17.915 C 163.317 17.148 159.337 17.090 152.500 17.683 "/></g>
<g fill="#FE0000FF" stroke="#FE0000FF">
<path d="M 186.865 125.817 C 167.515 135.537 156.286 147.867 141.158 176.000 C 135.986 185.618 134.814 186.614 137.447 179.151 C 140.050 171.773 145.780 161.262 152.954 150.705 C 156.829 145.002 160.000 140.004 160.000 139.597 C 160.000 139.190 159.394 138.251 158.654 137.511 C 157.225 136.083 158.390 135.188 132.000 157.991 C 121.184 167.337 113.955 171.410 102.500 174.614 C 95.208 176.653 94.864 176.858 98.613 176.926 L 102.726 177.000 107.245 189.250 C 109.731 195.988 112.051 203.059 112.400 204.964 C 113.038 208.439 116.850 214.980 118.244 214.993 C 118.654 214.997 121.354 211.410 124.244 207.023 C 127.135 202.635 129.873 199.035 130.329 199.023 C 131.939 198.979 129.756 205.595 125.484 213.710 C 120.397 223.374 116.157 229.215 114.826 228.392 C 114.302 228.069 113.097 228.507 112.147 229.367 C 110.590 230.776 110.128 230.779 107.460 229.396 C 97.413 224.186 89.229 215.127 88.298 208.185 C 87.827 204.672 87.412 204.167 84.633 203.718 C 68.322 201.084 43.353 213.546 40.001 225.995 C 37.065 236.900 43.062 245.812 58.500 253.482 C 62.754 255.596 64.991 255.982 73.500 256.073 C 83.892 256.184 89.421 254.887 98.666 250.170 C 109.335 244.728 120.863 230.136 130.114 210.367 C 132.911 204.390 137.390 194.975 140.068 189.445 C 142.746 183.915 145.428 177.104 146.027 174.310 C 148.619 162.225 166.628 141.603 185.438 129.179 C 191.417 125.231 195.893 122.000 195.385 122.000 C 194.878 122.000 191.043 123.718 186.865 125.817 M 104.529 242.980 C 98.684 247.002 90.841 250.468 82.979 252.505 C 72.321 255.267 73.088 253.655 84.521 249.264 C 90.560 246.946 98.875 243.079 103.000 240.671 C 111.439 235.746 112.567 237.450 104.529 242.980 "/></g>
<g fill="#FEFEFEFF" stroke="#FEFEFEFF">
<path d="M 266.224 128.451 C 258.266 131.542 254.645 135.020 250.347 143.700 C 246.071 152.335 234.666 165.291 227.054 170.157 C 215.919 177.277 209.241 170.434 215.581 158.399 L 218.162 153.500 213.498 158.000 C 207.615 163.677 205.000 168.705 205.000 174.339 C 205.000 178.275 204.682 178.889 202.091 179.962 C 197.909 181.694 195.322 179.945 192.299 173.342 C 190.187 168.728 189.894 167.001 190.460 162.473 C 191.393 155.007 195.606 147.151 200.634 143.501 C 203.972 141.077 208.000 135.617 208.000 133.514 C 208.000 133.284 205.773 135.322 203.051 138.044 C 200.330 140.766 193.680 145.863 188.275 149.370 C 175.330 157.771 169.317 166.427 170.935 174.335 C 171.769 178.415 169.387 193.505 167.201 197.987 C 165.360 201.761 159.860 206.000 156.804 206.000 C 154.090 206.000 150.158 201.359 149.386 197.244 C 149.024 195.313 149.126 191.880 149.614 189.616 L 150.500 185.500 147.812 190.000 C 144.279 195.914 143.290 198.674 141.954 206.342 C 141.178 210.797 139.807 214.184 137.421 217.540 C 133.898 222.496 132.855 226.653 135.378 225.685 C 136.136 225.394 137.261 225.661 137.878 226.278 C 139.789 228.189 139.124 232.413 136.183 237.054 C 131.418 244.574 129.657 252.331 131.908 255.885 C 132.605 256.987 133.028 256.816 133.973 255.050 C 135.580 252.047 140.342 250.222 147.427 249.894 C 152.676 249.650 153.402 249.855 154.115 251.781 C 155.681 256.015 162.476 255.646 169.044 250.969 C 170.670 249.811 172.000 249.356 172.000 249.958 C 172.000 251.750 177.478 248.414 180.491 244.786 C 182.816 241.986 182.945 241.539 181.360 241.765 C 168.853 243.547 165.000 242.881 165.000 238.939 C 165.000 235.964 172.865 228.649 177.577 227.242 C 183.478 225.478 193.681 218.571 195.999 214.770 C 198.577 210.541 198.544 210.359 195.054 209.661 C 189.916 208.633 188.118 201.801 191.592 196.500 C 192.544 195.048 194.037 192.439 194.911 190.703 C 196.992 186.569 204.065 182.316 211.256 180.875 C 216.867 179.750 217.074 179.788 219.458 182.361 C 225.903 189.314 239.979 181.065 243.545 168.246 C 245.750 160.316 249.690 150.294 252.520 145.417 C 254.508 141.989 259.532 136.892 269.733 127.951 C 271.051 126.795 270.161 126.922 266.224 128.451 "/></g>
<g fill="#FE0000FF" stroke="#FE0000FF">
<path d="M 205.120 185.808 C 201.302 188.372 195.969 194.901 192.824 200.860 C 191.752 202.891 191.844 203.413 193.481 204.610 C 196.614 206.900 199.102 206.218 203.155 201.958 C 205.270 199.735 207.000 198.318 207.000 198.809 C 207.000 203.351 196.928 221.161 192.395 224.637 C 190.686 225.946 185.961 227.858 181.895 228.887 C 173.934 230.900 168.588 234.610 169.179 237.709 C 169.980 241.912 177.698 240.102 187.450 233.424 C 195.613 227.835 197.610 227.764 192.313 233.250 C 190.056 235.588 186.768 240.090 185.006 243.255 C 181.527 249.507 178.130 252.727 174.088 253.606 C 172.664 253.915 168.514 255.052 164.865 256.132 C 157.090 258.433 153.285 257.881 151.906 254.253 C 151.076 252.068 150.556 251.845 147.729 252.451 C 145.953 252.832 143.283 253.248 141.795 253.376 C 138.641 253.647 135.408 256.310 133.313 260.363 C 130.923 264.984 129.500 262.124 129.500 252.700 C 129.500 245.268 129.809 243.955 132.796 238.683 C 134.970 234.846 135.874 232.179 135.452 230.848 C 134.820 228.858 134.777 228.861 132.405 231.089 L 130.000 233.349 130.000 228.295 C 130.000 224.506 130.872 221.520 133.481 216.370 C 135.396 212.592 136.971 209.056 136.981 208.513 C 137.029 205.998 129.037 219.788 121.860 234.606 L 113.927 250.982 116.214 254.073 C 118.113 256.640 118.500 258.420 118.500 264.590 C 118.500 270.819 118.742 271.910 120.000 271.356 C 123.620 269.761 128.360 269.955 136.147 272.018 C 140.741 273.235 147.344 274.683 150.820 275.236 C 156.684 276.168 157.607 276.042 163.626 273.484 C 168.936 271.227 171.412 269.294 177.289 262.817 C 190.174 248.616 205.152 225.627 214.426 205.813 C 221.566 190.562 221.752 189.748 218.913 186.160 C 215.671 182.063 210.879 181.940 205.120 185.808 "/></g>
<g fill="#FE0000FF" stroke="#FE0000FF">
<path d="M 127.122 41.067 L 123.743 43.127 124.252 53.313 C 124.830 64.884 128.076 79.557 134.137 98.000 C 138.234 110.466 144.999 128.211 147.404 132.801 L 148.672 135.221 151.669 131.585 L 154.667 127.948 151.275 118.224 C 146.770 105.307 140.908 81.875 136.275 58.262 C 134.199 47.681 132.050 39.020 131.500 39.015 C 130.950 39.011 128.980 39.934 127.122 41.067 "/></g>
<g fill="#FE0000FF" stroke="#FE0000FF">
<path d="M 219.474 145.417 C 208.305 149.186 198.196 154.664 195.065 158.645 C 191.159 163.611 193.228 176.986 198.144 178.546 C 201.030 179.462 203.000 177.241 203.000 173.074 C 203.000 164.897 211.164 154.038 218.737 152.142 C 229.154 149.535 230.543 149.849 224.749 153.500 C 218.343 157.536 214.739 166.879 218.413 169.927 C 220.134 171.356 225.527 169.370 228.257 166.302 C 229.825 164.539 232.866 154.102 234.390 145.250 C 234.909 142.239 234.750 142.001 232.225 142.017 C 230.726 142.027 224.988 143.557 219.474 145.417 "/></g>
<g fill="#FE0000FF" stroke="#FE0000FF">
<path d="M 159.463 179.486 C 154.182 185.156 151.302 193.035 152.939 197.338 C 153.609 199.103 154.438 199.769 155.468 199.374 C 156.452 198.996 157.000 199.360 157.000 200.393 C 157.000 202.313 157.172 202.334 160.478 200.828 C 164.671 198.918 167.089 193.869 167.696 185.758 C 168.184 179.229 168.023 178.307 166.100 176.577 C 163.965 174.659 163.952 174.664 159.463 179.486 "/></g>
<g fill="#FE0000FF" stroke="#FE0000FF">
<path d="M 147.637 46.000 C 147.961 51.225 148.326 57.975 148.448 61.000 C 148.694 67.107 151.335 86.911 153.650 100.000 C 155.213 108.841 158.498 119.819 160.062 121.433 C 162.108 123.544 162.129 120.622 160.124 112.761 C 158.956 108.182 158.000 102.397 158.000 99.906 C 158.000 97.415 156.673 89.609 155.052 82.559 C 153.431 75.509 151.362 64.062 150.454 57.121 C 148.080 38.959 146.915 34.360 147.637 46.000 "/></g>
<g fill="#FEFEFEFF" stroke="#FEFEFEFF">
<path d="M 252.806 107.405 C 250.736 109.203 245.675 111.811 241.293 113.337 C 235.003 115.526 232.353 117.135 227.748 121.560 C 222.139 126.950 220.472 130.018 221.173 133.659 C 221.760 136.705 224.599 136.381 225.953 133.114 C 226.747 131.197 227.695 130.330 228.611 130.681 C 231.897 131.942 236.220 128.751 238.639 123.281 C 240.519 119.031 241.983 117.352 245.679 115.208 C 251.111 112.056 257.325 106.432 256.838 105.110 C 256.652 104.607 254.838 105.639 252.806 107.405 "/></g>
<g fill="#FEFEFEFF" stroke="#FEFEFEFF">
<path d="M 93.699 261.678 C 96.686 265.600 104.365 271.000 106.955 271.000 C 107.815 271.000 109.104 270.063 109.820 268.917 C 112.707 264.293 104.865 258.010 96.199 258.004 L 90.898 258.000 93.699 261.678 "/></g>
<g fill="#010000FF" stroke="#010000FF">
<path d="M 103.477 241.252 C 100.739 242.974 94.450 246.123 89.500 248.250 C 80.379 252.168 81.622 252.610 91.437 248.938 C 96.741 246.953 109.588 239.255 108.841 238.508 C 108.628 238.294 106.214 239.529 103.477 241.252 "/></g>
<g fill="#010000FF" stroke="#010000FF">
<path d="M 204.180 173.128 C 203.958 177.593 202.108 179.254 197.800 178.858 C 194.599 178.563 194.570 178.593 196.841 179.861 C 198.715 180.907 199.771 180.923 202.140 179.942 C 204.905 178.797 205.074 178.416 204.729 174.108 C 204.411 170.131 204.336 169.997 204.180 173.128 "/></g>
<g fill="#010000FF" stroke="#010000FF">
<path d="M 156.083 16.399 C 156.313 16.618 160.775 16.951 166.000 17.138 C 171.225 17.326 174.676 17.147 173.668 16.740 C 171.807 15.988 155.320 15.668 156.083 16.399 "/></g>
<g fill="#010000FF" stroke="#010000FF">
<path d="M 290.250 121.579 C 292.287 123.998 292.551 128.982 290.750 131.002 C 289.687 132.194 289.761 132.206 291.250 131.079 C 293.801 129.149 293.522 123.752 290.750 121.405 C 288.502 119.502 288.502 119.502 290.250 121.579 "/></g>
<g fill="#6A0000FF" stroke="#6A0000FF">
<path d="M 137.929 149.879 C 135.965 151.871 134.397 154.175 134.445 155.000 C 134.521 156.333 134.638 156.333 135.500 155.000 C 136.033 154.175 136.476 153.224 136.485 152.887 C 136.493 152.549 137.625 150.920 139.000 149.266 C 140.670 147.257 140.314 147.460 137.929 149.879 "/></g>
<g fill="#010000FF" stroke="#010000FF">
<path d="M 39.000 120.000 L 44.000 125.000 39.000 120.000 L 34.000 115.000 39.000 120.000 "/></g>
<g fill="#6A0000FF" stroke="#6A0000FF">
<path d="M 174.000 266.942 L 170.500 270.562 174.000 266.942 L 177.500 263.323 174.000 266.942 "/></g>
<g fill="#010000FF" stroke="#010000FF">
<path d="M 258.500 205.435 L 255.500 208.564 258.500 205.435 L 261.500 202.305 258.500 205.435 "/></g>
<g fill="#010000FF" stroke="#010000FF">
<path d="M 246.000 213.924 L 243.500 216.566 246.000 213.924 L 248.500 211.282 246.000 213.924 "/></g>
<g fill="#010000FF" stroke="#010000FF">
<path d="M 133.581 18.869 C 133.282 19.352 134.479 19.398 136.272 18.972 C 139.312 18.249 139.343 18.199 136.809 18.102 C 135.329 18.046 133.876 18.391 133.581 18.869 "/></g>
<g fill="#6A0000FF" stroke="#6A0000FF">
<path d="M 45.000 216.924 L 42.500 219.566 45.000 216.924 L 47.500 214.282 45.000 216.924 "/></g>
<g fill="#010000FF" stroke="#010000FF">
<path d="M 259.500 113.410 L 257.500 115.567 259.500 113.410 L 261.500 111.253 259.500 113.410 "/></g>
<g fill="#010000FF" stroke="#010000FF">
<path d="M 250.500 100.410 L 248.500 102.567 250.500 100.410 L 252.500 98.253 250.500 100.410 "/></g>
<g fill="#6A0000FF" stroke="#6A0000FF">
<path d="M 78.556 77.971 C 76.951 79.717 76.904 79.974 78.285 79.444 C 79.205 79.091 80.080 78.139 80.229 77.329 C 80.408 76.357 79.839 76.575 78.556 77.971 "/></g>
<g fill="#6A0000FF" stroke="#6A0000FF">
<path d="M 147.850 59.333 C 147.509 63.123 147.584 63.392 148.364 61.175 C 148.814 59.896 148.917 58.583 148.591 58.258 C 148.266 57.933 147.933 58.417 147.850 59.333 "/></g>
<g fill="#010000FF" stroke="#010000FF">
<path d="M 197.000 254.888 L 195.500 256.563 197.000 254.888 L 198.500 253.212 197.000 254.888 "/></g>
<g fill="#010000FF" stroke="#010000FF">
<path d="M 47.000 201.888 L 45.500 203.563 47.000 201.888 L 48.500 200.212 47.000 201.888 "/></g>
<g fill="#010000FF" stroke="#010000FF">
<path d="M 261.000 119.000 L 263.000 121.000 261.000 119.000 L 259.000 117.000 261.000 119.000 "/></g>
<g fill="#010000FF" stroke="#010000FF">
<path d="M 211.508 109.013 C 211.844 109.556 212.879 109.971 213.809 109.937 C 215.009 109.892 214.833 109.605 213.199 108.950 C 211.708 108.352 211.113 108.374 211.508 109.013 "/></g>
<g fill="#010000FF" stroke="#010000FF">
<path d="M 30.000 64.888 L 28.500 66.563 30.000 64.888 L 31.500 63.212 30.000 64.888 "/></g>
<g fill="#010000FF" stroke="#010000FF">
<path d="M 44.000 50.888 L 42.500 52.563 44.000 50.888 L 45.500 49.212 44.000 50.888 "/></g>
<g fill="#6A0000FF" stroke="#6A0000FF">
<path d="M 136.000 255.888 L 134.500 257.563 136.000 255.888 L 137.500 254.212 136.000 255.888 "/></g>
<g fill="#6A0000FF" stroke="#6A0000FF">
<path d="M 44.000 244.000 L 46.000 246.000 44.000 244.000 L 42.000 242.000 44.000 244.000 "/></g>
<g fill="#6A0000FF" stroke="#6A0000FF">
<path d="M 93.000 176.050 C 93.000 176.771 93.547 176.781 94.750 176.080 C 96.417 175.109 96.417 175.059 94.750 175.030 C 93.788 175.014 93.000 175.472 93.000 176.050 "/></g>
<g fill="#6A0000FF" stroke="#6A0000FF">
<path d="M 151.424 98.037 C 150.610 99.818 150.666 99.874 151.893 98.505 C 152.658 97.651 153.074 96.741 152.817 96.483 C 152.559 96.226 151.932 96.925 151.424 98.037 "/></g>
<g fill="#6A0000FF" stroke="#6A0000FF">
<path d="M 145.710 75.681 C 145.302 76.330 145.468 77.171 146.080 77.549 C 146.781 77.983 147.056 77.546 146.823 76.368 C 146.573 75.106 146.212 74.883 145.710 75.681 "/></g>
<g fill="#6A0000FF" stroke="#6A0000FF">
<path d="M 93.500 63.000 C 93.160 63.550 93.332 64.000 93.882 64.000 C 94.432 64.000 95.160 63.550 95.500 63.000 C 95.840 62.450 95.668 62.000 95.118 62.000 C 94.568 62.000 93.840 62.450 93.500 63.000 "/></g>
<g fill="#6A0000FF" stroke="#6A0000FF">
<path d="M 42.000 61.888 L 40.500 63.563 42.000 61.888 L 43.500 60.212 42.000 61.888 "/></g>
<g fill="#AB0000FF" stroke="#AB0000FF">
<path d="M 110.000 241.888 L 108.500 243.563 110.000 241.888 L 111.500 240.212 110.000 241.888 "/></g>
<g fill="#AB0000FF" stroke="#AB0000FF">
<path d="M 158.030 136.750 C 158.059 138.417 158.109 138.417 159.080 136.750 C 159.781 135.547 159.771 135.000 159.050 135.000 C 158.472 135.000 158.014 135.788 158.030 136.750 "/></g>
<g fill="#AB0000FF" stroke="#AB0000FF">
<path d="M 95.863 60.761 C 94.605 62.366 94.647 62.384 96.404 61.000 C 97.451 60.175 98.576 59.709 98.904 59.964 C 99.232 60.218 98.988 60.111 98.363 59.725 C 97.738 59.338 96.613 59.805 95.863 60.761 "/></g>
<g fill="#010000FF" stroke="#010000FF">
<path d="M 93.500 281.500 L 95.000 283.000 93.500 281.500 L 92.000 280.000 93.500 281.500 "/></g>
<g fill="#010000FF" stroke="#010000FF">
<path d="M 44.500 253.500 L 46.000 255.000 44.500 253.500 L 43.000 252.000 44.500 253.500 "/></g>
<g fill="#010000FF" stroke="#010000FF">
<path d="M 201.378 249.378 L 200.500 250.256 201.378 249.378 L 202.256 248.500 201.378 249.378 "/></g>
<g fill="#010000FF" stroke="#010000FF">
<path d="M 47.500 129.500 L 49.000 131.000 47.500 129.500 L 46.000 128.000 47.500 129.500 "/></g>
<g fill="#010000FF" stroke="#010000FF">
<path d="M 98.378 59.378 L 97.500 60.256 98.378 59.378 L 99.256 58.500 98.378 59.378 "/></g>
<g fill="#010000FF" stroke="#010000FF">
<path d="M 49.378 46.378 L 48.500 47.256 49.378 46.378 L 50.256 45.500 49.378 46.378 "/></g>
<g fill="#6A0000FF" stroke="#6A0000FF">
<path d="M 76.000 253.047 C 75.010 253.656 74.925 253.975 75.750 253.985 C 76.438 253.993 77.113 253.578 77.250 253.062 C 77.404 252.485 76.924 252.479 76.000 253.047 "/></g>
<g fill="#6A0000FF" stroke="#6A0000FF">
<path d="M 113.378 238.378 L 112.500 239.256 113.378 238.378 L 114.256 237.500 113.378 238.378 "/></g>
<g fill="#6A0000FF" stroke="#6A0000FF">
<path d="M 112.378 228.378 L 111.500 229.256 112.378 228.378 L 113.256 227.500 112.378 228.378 "/></g>
<g fill="#6A0000FF" stroke="#6A0000FF">
<path d="M 219.500 186.500 L 221.000 188.000 219.500 186.500 L 218.000 185.000 219.500 186.500 "/></g>
<g fill="#6A0000FF" stroke="#6A0000FF">
<path d="M 144.378 146.378 L 143.500 147.256 144.378 146.378 L 145.256 145.500 144.378 146.378 "/></g>
<g fill="#6A0000FF" stroke="#6A0000FF">
<path d="M 151.378 140.378 L 150.500 141.256 151.378 140.378 L 152.256 139.500 151.378 140.378 "/></g>
<g fill="#6A0000FF" stroke="#6A0000FF">
<path d="M 149.378 134.378 L 148.500 135.256 149.378 134.378 L 150.256 133.500 149.378 134.378 "/></g>
<g fill="#6A0000FF" stroke="#6A0000FF">
<path d="M 149.695 94.352 C 149.275 95.448 149.413 95.863 150.064 95.460 C 150.637 95.106 150.939 94.318 150.736 93.709 C 150.533 93.100 150.065 93.389 149.695 94.352 "/></g>
<g fill="#6A0000FF" stroke="#6A0000FF">
<path d="M 148.695 90.352 C 148.275 91.448 148.413 91.863 149.064 91.460 C 149.637 91.106 149.939 90.318 149.736 89.709 C 149.533 89.100 149.065 89.389 148.695 90.352 "/></g>
<g fill="#6A0000FF" stroke="#6A0000FF">
<path d="M 147.695 86.352 C 147.275 87.448 147.413 87.863 148.064 87.460 C 148.637 87.106 148.939 86.318 148.736 85.709 C 148.533 85.100 148.065 85.389 147.695 86.352 "/></g>
<g fill="#6A0000FF" stroke="#6A0000FF">
<path d="M 36.378 67.378 L 35.500 68.256 36.378 67.378 L 37.256 66.500 36.378 67.378 "/></g>
<g fill="#6A0000FF" stroke="#6A0000FF">
<path d="M 102.650 54.758 C 102.274 55.365 102.385 56.120 102.896 56.436 C 103.407 56.751 103.714 56.255 103.578 55.332 C 103.424 54.281 103.077 54.066 102.650 54.758 "/></g>
<g fill="#6A0000FF" stroke="#6A0000FF">
<path d="M 139.000 39.200 C 139.000 40.133 139.267 40.133 140.200 39.200 C 141.133 38.267 141.133 38.000 140.200 38.000 C 139.540 38.000 139.000 38.540 139.000 39.200 "/></g>
<g fill="#DA0000FF" stroke="#DA0000FF">
<path d="M 167.378 143.378 L 166.500 144.256 167.378 143.378 L 168.256 142.500 167.378 143.378 "/></g>
<g fill="#AB0000FF" stroke="#AB0000FF">
<path d="M 227.378 167.378 L 226.500 168.256 227.378 167.378 L 228.256 166.500 227.378 167.378 "/></g>
<g fill="#AB0000FF" stroke="#AB0000FF">
<path d="M 140.624 44.799 C 140.212 45.466 140.390 46.000 141.024 46.000 C 141.653 46.000 141.987 45.460 141.766 44.799 C 141.455 43.865 141.202 43.865 140.624 44.799 "/></g>
<g fill="#2D0000FF" stroke="#2D0000FF">
<path d="M 159.378 178.378 L 158.500 179.256 159.378 178.378 L 160.256 177.500 159.378 178.378 "/></g>
</svg>
